<svg id="svg" version="1.1" xmlns="http://www.w3.org/2000/svg" xmlns:xlink="http://www.w3.org/1999/xlink" width="400" height="400" viewBox="0, 0, 400,400"><g id="svgg"><path id="path0" d="M55.600 13.220 C 55.600 31.280,56.486 30.091,42.800 30.398 L 33.800 30.600 31.400 31.800 C 29.390 32.805,28.903 33.260,28.400 34.600 C 27.426 37.199,27.496 363.929,28.471 366.080 C 28.993 367.230,29.704 367.848,31.671 368.859 L 34.200 370.159 42.400 370.215 C 56.425 370.311,55.596 369.264,55.599 386.900 L 55.600 400.000 200.200 400.000 L 344.800 400.000 344.813 386.700 C 344.827 371.976,344.699 372.688,347.601 371.187 C 349.298 370.310,349.864 370.254,357.600 370.196 C 366.680 370.129,369.493 369.453,371.400 366.880 C 372.197 365.804,372.200 365.173,372.200 200.129 L 372.200 34.459 371.363 33.329 C 369.660 31.033,366.870 30.451,357.454 30.424 C 344.167 30.386,344.800 31.247,344.800 13.220 L 344.800 0.000 200.200 0.000 L 55.600 0.000 55.600 13.220 M267.945 79.192 C 269.114 80.178,270.280 81.348,270.535 81.792 C 270.880 82.391,271.052 97.529,271.200 140.268 L 271.400 197.936 272.370 198.968 C 274.379 201.107,275.667 199.615,276.377 194.324 C 276.651 192.276,277.139 189.520,277.460 188.200 C 278.639 183.354,279.160 180.461,279.982 174.200 C 280.444 170.680,281.345 165.550,281.984 162.800 C 282.623 160.050,283.439 155.370,283.798 152.400 C 284.727 144.717,285.095 142.736,286.473 138.000 C 288.889 129.701,287.715 129.997,318.241 130.012 L 342.200 130.024 344.399 131.512 C 348.127 134.035,348.851 142.013,346.093 150.200 C 345.426 152.180,344.496 155.780,344.025 158.200 C 343.554 160.620,342.727 163.860,342.187 165.400 C 341.646 166.940,340.678 170.812,340.034 174.004 C 339.391 177.196,338.487 180.765,338.025 181.936 C 337.564 183.107,336.664 186.706,336.026 189.934 C 335.388 193.162,334.497 196.740,334.045 197.885 C 330.850 205.993,330.756 217.375,333.814 226.039 C 334.624 228.333,335.390 231.849,336.403 237.916 C 336.855 240.620,337.580 243.734,338.014 244.836 C 338.449 245.938,339.338 249.859,339.991 253.549 C 340.644 257.239,341.542 261.415,341.988 262.829 C 342.433 264.243,343.342 268.370,344.006 272.000 C 344.671 275.630,345.476 279.320,345.796 280.200 C 346.583 282.368,347.431 286.194,348.190 291.000 C 348.537 293.200,349.267 296.644,349.811 298.654 C 351.551 305.082,351.068 308.893,348.113 312.052 C 345.444 314.905,346.261 314.831,318.716 314.709 L 294.184 314.600 291.992 313.144 C 288.567 310.868,288.514 310.765,287.416 304.175 C 286.868 300.889,286.074 296.850,285.653 295.200 C 285.231 293.550,284.493 288.870,284.013 284.800 C 283.533 280.730,282.720 275.600,282.206 273.400 C 281.305 269.541,280.801 266.465,279.388 256.200 C 279.025 253.560,278.304 249.600,277.787 247.400 C 277.271 245.200,276.721 242.142,276.567 240.604 C 276.048 235.434,274.501 232.354,273.035 233.571 C 271.255 235.048,271.203 236.150,271.153 273.173 C 271.099 313.105,271.337 309.868,268.257 312.556 L 265.915 314.600 239.857 314.719 C 208.127 314.865,209.085 314.994,206.474 310.230 C 204.748 307.081,205.653 122.777,207.419 117.660 C 207.522 117.363,207.787 114.573,208.009 111.460 C 208.439 105.415,209.297 98.482,210.217 93.600 C 210.528 91.950,210.989 88.710,211.243 86.400 C 211.811 81.213,212.466 79.994,215.542 78.400 L 217.800 77.228 241.810 77.314 L 265.820 77.400 267.945 79.192 M167.718 84.133 C 175.351 86.442,181.566 93.994,183.278 103.041 C 184.027 107.001,184.034 157.430,183.285 159.897 C 181.789 164.833,181.712 164.845,153.534 164.713 L 129.668 164.600 127.960 163.399 C 124.904 161.251,124.836 160.779,124.817 141.714 L 124.800 125.228 123.547 123.801 L 122.295 122.375 117.862 122.487 L 113.430 122.600 112.515 123.959 L 111.600 125.318 111.600 147.999 L 111.600 170.680 112.749 172.266 C 114.130 174.172,115.701 174.820,121.800 175.997 C 124.220 176.464,127.640 177.355,129.400 177.978 C 131.160 178.600,134.556 179.498,136.948 179.973 C 139.339 180.447,142.853 181.353,144.756 181.985 C 146.659 182.618,150.266 183.522,152.771 183.994 C 155.276 184.467,158.494 185.294,159.923 185.832 C 161.351 186.369,164.338 187.179,166.560 187.631 C 177.225 189.802,182.721 195.628,183.645 205.744 C 184.223 212.068,183.871 289.471,183.252 292.206 C 180.511 304.313,174.817 310.455,163.756 313.236 L 157.536 314.800 115.611 314.800 L 73.686 314.800 69.143 313.617 C 62.803 311.966,61.762 311.557,59.900 309.984 C 54.749 305.630,53.008 303.011,51.690 297.631 L 50.654 293.400 50.492 264.200 C 50.288 227.358,50.163 228.251,55.792 226.432 C 59.863 225.117,100.291 225.143,103.864 226.463 C 108.896 228.322,108.753 227.586,108.813 251.800 C 108.875 276.292,108.573 275.301,116.000 275.371 C 123.023 275.438,122.750 276.608,122.777 246.354 L 122.800 221.708 121.153 219.683 C 119.202 217.284,118.737 217.076,112.957 216.010 C 110.513 215.560,107.183 214.734,105.557 214.175 C 103.931 213.616,100.021 212.636,96.868 211.996 C 93.716 211.357,90.116 210.449,88.868 209.979 C 87.621 209.509,84.350 208.691,81.600 208.161 C 78.850 207.630,74.980 206.667,73.000 206.019 C 71.020 205.372,67.830 204.539,65.910 204.168 C 57.303 202.507,52.005 196.654,50.787 187.459 C 49.898 180.747,50.511 107.693,51.494 103.175 C 53.115 95.731,56.878 90.251,62.600 87.005 C 69.629 83.018,66.106 83.244,119.600 83.345 C 161.946 83.426,165.575 83.485,167.718 84.133 " stroke="none" fill="#17233f" fill-rule="evenodd"></path><path id="path1" d="M216.000 79.176 C 212.521 80.975,212.563 80.876,211.616 89.400 C 211.152 93.580,210.421 98.733,209.991 100.850 C 209.562 102.968,208.579 112.199,207.806 121.363 L 206.400 138.025 206.400 221.958 C 206.400 310.704,206.367 309.143,208.319 311.555 C 210.289 313.989,210.271 313.987,238.400 313.992 C 266.459 313.996,265.796 314.053,268.411 311.389 L 270.200 309.566 270.421 272.483 C 270.656 233.014,270.590 234.263,272.507 232.907 C 274.918 231.201,275.957 232.735,277.175 239.800 C 277.630 242.440,278.272 245.590,278.602 246.800 C 278.933 248.010,279.657 252.690,280.212 257.200 C 280.767 261.710,281.558 266.660,281.969 268.200 C 282.830 271.417,283.692 276.674,284.628 284.400 C 284.988 287.370,285.700 291.420,286.211 293.400 C 286.721 295.380,287.430 299.242,287.784 301.982 C 288.813 309.927,288.910 310.173,291.753 312.122 L 294.200 313.800 318.347 313.915 C 345.544 314.044,345.729 314.028,347.908 311.386 C 349.854 309.024,350.529 304.370,349.443 300.795 C 349.142 299.802,348.406 296.112,347.807 292.595 C 347.209 289.078,346.281 284.810,345.746 283.112 C 345.211 281.413,344.327 277.453,343.781 274.312 C 343.236 271.170,342.264 266.800,341.620 264.600 C 340.976 262.400,340.069 258.219,339.604 255.310 C 339.139 252.400,338.312 248.710,337.766 247.110 C 337.220 245.509,336.246 241.140,335.601 237.400 C 334.956 233.660,334.080 229.700,333.655 228.600 C 333.230 227.500,332.301 223.187,331.591 219.015 L 330.299 211.430 331.168 206.815 C 332.445 200.031,332.824 198.456,333.817 195.800 C 334.310 194.480,335.120 191.240,335.616 188.600 C 336.113 185.960,337.021 182.350,337.633 180.577 C 338.246 178.805,339.223 174.845,339.806 171.777 C 340.388 168.710,341.215 165.402,341.642 164.426 C 342.070 163.451,342.964 159.986,343.628 156.726 C 344.292 153.467,345.266 149.656,345.792 148.259 C 348.230 141.783,347.517 134.380,344.256 132.307 L 342.200 131.000 319.000 130.878 C 293.791 130.745,291.145 130.930,289.240 132.958 C 288.050 134.224,285.397 145.181,284.422 152.854 C 283.435 160.623,282.960 163.317,281.965 166.800 C 281.556 168.230,280.770 172.910,280.219 177.200 C 279.667 181.490,278.939 185.990,278.600 187.200 C 278.261 188.410,277.642 191.422,277.224 193.894 C 276.096 200.562,274.669 202.102,271.906 199.633 L 270.600 198.466 270.400 140.382 L 270.200 82.298 268.082 80.401 C 265.297 77.907,266.348 77.996,240.244 78.019 L 218.200 78.038 216.000 79.176 M71.000 84.415 C 68.215 84.870,66.587 85.414,65.302 86.319 C 64.696 86.746,63.390 87.498,62.400 87.989 C 60.564 88.900,56.000 93.276,56.000 94.125 C 56.000 94.382,55.378 95.496,54.618 96.600 C 51.737 100.783,51.847 98.906,51.701 146.200 C 51.548 195.672,51.328 192.503,55.234 197.143 C 56.557 198.714,57.853 200.000,58.116 200.000 C 58.378 200.000,59.523 200.640,60.660 201.423 C 62.396 202.619,63.611 203.030,68.263 203.997 C 71.308 204.629,74.718 205.508,75.840 205.949 C 76.962 206.390,80.202 207.201,83.040 207.752 C 85.878 208.302,89.460 209.198,91.000 209.743 C 92.540 210.288,95.870 211.115,98.400 211.582 C 100.930 212.048,104.541 212.950,106.425 213.586 C 108.309 214.222,111.812 215.121,114.209 215.583 C 119.105 216.528,120.370 217.126,122.158 219.337 L 123.400 220.875 123.400 246.955 C 123.400 278.285,124.001 276.004,115.754 275.998 C 107.714 275.992,108.243 277.656,108.000 251.600 C 107.772 227.135,108.004 228.652,104.314 227.488 C 101.016 226.449,58.040 226.474,55.031 227.518 C 51.278 228.818,51.504 226.529,51.576 262.435 C 51.635 292.439,51.759 295.993,52.875 299.600 C 53.379 301.228,57.497 307.600,58.046 307.600 C 58.250 307.600,59.190 308.311,60.133 309.181 C 62.221 311.106,62.842 311.352,69.343 312.830 L 74.486 314.000 115.388 314.000 L 156.290 314.000 161.245 312.995 C 167.480 311.730,169.934 310.942,171.200 309.799 C 171.750 309.303,172.965 308.423,173.900 307.843 C 174.835 307.264,175.600 306.638,175.600 306.451 C 175.600 306.265,176.348 305.262,177.263 304.223 C 179.550 301.625,182.244 294.156,182.827 288.800 C 183.093 286.358,183.197 270.277,183.120 243.800 L 183.000 202.600 181.200 199.013 C 177.938 192.511,174.110 189.829,165.709 188.160 C 162.899 187.602,159.811 186.797,158.846 186.371 C 157.881 185.945,154.509 185.060,151.353 184.404 C 148.197 183.747,144.306 182.749,142.707 182.186 C 141.108 181.623,137.605 180.722,134.923 180.185 C 132.241 179.647,129.091 178.826,127.923 178.360 C 126.755 177.895,123.310 177.004,120.266 176.381 C 113.894 175.076,113.169 174.701,111.803 172.006 L 110.800 170.027 110.800 148.000 C 110.800 124.153,110.770 124.508,112.999 122.300 C 114.656 120.658,121.254 120.624,123.184 122.248 C 125.636 124.311,125.600 124.019,125.600 141.730 L 125.600 157.900 126.597 160.154 C 128.412 164.259,126.538 163.997,154.116 163.999 C 181.802 164.000,180.406 164.185,182.225 160.277 L 183.192 158.200 183.188 132.800 C 183.186 118.830,183.014 106.227,182.807 104.794 C 181.786 97.741,177.463 89.987,173.400 87.923 C 172.520 87.476,171.440 86.787,171.000 86.392 C 168.502 84.153,169.881 84.213,119.400 84.148 C 93.880 84.115,72.100 84.236,71.000 84.415 " stroke="none" fill="#ffffff" fill-rule="evenodd"></path><path id="path2" d="M6.400 1.000 C 6.400 1.897,6.238 2.000,4.829 2.000 C 2.886 2.000,2.000 2.824,2.000 4.629 C 2.000 5.847,1.877 6.005,0.900 6.047 L -0.200 6.095 1.000 6.400 L 2.200 6.705 1.100 6.753 C -0.325 6.814,-0.325 7.498,1.100 7.713 L 2.200 7.880 1.100 7.940 L 0.000 8.000 0.000 200.800 L 0.000 393.600 1.000 393.600 C 1.981 393.600,2.283 394.407,2.023 396.330 C 1.920 397.089,2.812 398.040,3.561 397.969 C 5.476 397.786,6.000 398.008,6.000 399.000 L 6.000 400.000 30.800 400.000 L 55.600 400.000 55.599 386.900 C 55.596 369.264,56.425 370.311,42.400 370.215 L 34.200 370.159 31.671 368.859 C 29.704 367.848,28.993 367.230,28.471 366.080 C 27.496 363.929,27.426 37.199,28.400 34.600 C 28.903 33.260,29.390 32.805,31.400 31.800 L 33.800 30.600 42.800 30.398 C 56.486 30.091,55.600 31.280,55.600 13.220 L 55.600 0.000 31.000 0.000 L 6.400 0.000 6.400 1.000 M344.800 13.220 C 344.800 31.247,344.167 30.386,357.454 30.424 C 366.870 30.451,369.660 31.033,371.363 33.329 L 372.200 34.459 372.200 200.129 C 372.200 365.173,372.197 365.804,371.400 366.880 C 369.493 369.453,366.680 370.129,357.600 370.196 C 349.864 370.254,349.298 370.310,347.601 371.187 C 344.699 372.688,344.827 371.976,344.813 386.700 L 344.800 400.000 369.400 400.000 L 394.000 400.000 394.000 399.000 C 394.000 398.109,394.165 398.000,395.520 398.000 C 397.478 398.000,398.000 397.436,398.000 395.320 C 398.000 393.752,398.088 393.600,399.000 393.600 L 400.000 393.600 400.000 200.000 L 400.000 6.400 399.000 6.400 C 398.003 6.400,397.762 5.735,397.969 3.561 C 398.040 2.812,397.089 1.920,396.330 2.023 C 394.629 2.253,394.000 1.977,394.000 1.000 L 394.000 0.000 369.400 0.000 L 344.800 0.000 344.800 13.220 M215.542 78.400 C 212.466 79.994,211.811 81.213,211.243 86.400 C 210.989 88.710,210.528 91.950,210.217 93.600 C 209.297 98.482,208.439 105.415,208.009 111.460 C 207.787 114.573,207.522 117.363,207.419 117.660 C 205.653 122.777,204.748 307.081,206.474 310.230 C 209.085 314.994,208.127 314.865,239.857 314.719 L 265.915 314.600 268.257 312.556 C 271.337 309.868,271.099 313.105,271.153 273.173 C 271.203 236.150,271.255 235.048,273.035 233.571 C 274.501 232.354,276.048 235.434,276.567 240.604 C 276.721 242.142,277.271 245.200,277.787 247.400 C 278.304 249.600,279.025 253.560,279.388 256.200 C 280.801 266.465,281.305 269.541,282.206 273.400 C 282.720 275.600,283.533 280.730,284.013 284.800 C 284.493 288.870,285.231 293.550,285.653 295.200 C 286.074 296.850,286.868 300.889,287.416 304.175 C 288.514 310.765,288.567 310.868,291.992 313.144 L 294.184 314.600 318.716 314.709 C 346.261 314.831,345.444 314.905,348.113 312.052 C 351.068 308.893,351.551 305.082,349.811 298.654 C 349.267 296.644,348.537 293.200,348.190 291.000 C 347.431 286.194,346.583 282.368,345.796 280.200 C 345.476 279.320,344.671 275.630,344.006 272.000 C 343.342 268.370,342.433 264.243,341.988 262.829 C 341.542 261.415,340.644 257.239,339.991 253.549 C 339.338 249.859,338.449 245.938,338.014 244.836 C 337.580 243.734,336.855 240.620,336.403 237.916 C 335.390 231.849,334.624 228.333,333.814 226.039 C 330.756 217.375,330.850 205.993,334.045 197.885 C 334.497 196.740,335.388 193.162,336.026 189.934 C 336.664 186.706,337.564 183.107,338.025 181.936 C 338.487 180.765,339.391 177.196,340.034 174.004 C 340.678 170.812,341.646 166.940,342.187 165.400 C 342.727 163.860,343.554 160.620,344.025 158.200 C 344.496 155.780,345.426 152.180,346.093 150.200 C 348.851 142.013,348.127 134.035,344.399 131.512 L 342.200 130.024 318.241 130.012 C 287.715 129.997,288.889 129.701,286.473 138.000 C 285.095 142.736,284.727 144.717,283.798 152.400 C 283.439 155.370,282.623 160.050,281.984 162.800 C 281.345 165.550,280.444 170.680,279.982 174.200 C 279.160 180.461,278.639 183.354,277.460 188.200 C 277.139 189.520,276.651 192.276,276.377 194.324 C 275.667 199.615,274.379 201.107,272.370 198.968 L 271.400 197.936 271.200 140.268 C 271.052 97.529,270.880 82.391,270.535 81.792 C 270.280 81.348,269.114 80.178,267.945 79.192 L 265.820 77.400 241.810 77.314 L 217.800 77.228 215.542 78.400 M264.126 78.252 C 265.563 78.449,266.425 78.917,268.082 80.401 L 270.200 82.298 270.400 140.382 L 270.600 198.466 271.906 199.633 C 274.669 202.102,276.096 200.562,277.224 193.894 C 277.642 191.422,278.261 188.410,278.600 187.200 C 278.939 185.990,279.667 181.490,280.219 177.200 C 280.770 172.910,281.556 168.230,281.965 166.800 C 282.960 163.317,283.435 160.623,284.422 152.854 C 285.397 145.181,288.050 134.224,289.240 132.958 C 291.145 130.930,293.791 130.745,319.000 130.878 L 342.200 131.000 344.256 132.307 C 347.517 134.380,348.230 141.783,345.792 148.259 C 345.266 149.656,344.292 153.467,343.628 156.726 C 342.964 159.986,342.070 163.451,341.642 164.426 C 341.215 165.402,340.388 168.710,339.806 171.777 C 339.223 174.845,338.246 178.805,337.633 180.577 C 337.021 182.350,336.113 185.960,335.616 188.600 C 335.120 191.240,334.310 194.480,333.817 195.800 C 332.824 198.456,332.445 200.031,331.168 206.815 L 330.299 211.430 331.591 219.015 C 332.301 223.187,333.230 227.500,333.655 228.600 C 334.080 229.700,334.956 233.660,335.601 237.400 C 336.246 241.140,337.220 245.509,337.766 247.110 C 338.312 248.710,339.139 252.400,339.604 255.310 C 340.069 258.219,340.976 262.400,341.620 264.600 C 342.264 266.800,343.236 271.170,343.781 274.312 C 344.327 277.453,345.211 281.413,345.746 283.112 C 346.281 284.810,347.209 289.078,347.807 292.595 C 348.406 296.112,349.142 299.802,349.443 300.795 C 350.529 304.370,349.854 309.024,347.908 311.386 C 345.729 314.028,345.544 314.044,318.347 313.915 L 294.200 313.800 291.753 312.122 C 288.910 310.173,288.813 309.927,287.784 301.982 C 287.430 299.242,286.721 295.380,286.211 293.400 C 285.700 291.420,284.988 287.370,284.628 284.400 C 283.692 276.674,282.830 271.417,281.969 268.200 C 281.558 266.660,280.767 261.710,280.212 257.200 C 279.657 252.690,278.933 248.010,278.602 246.800 C 278.272 245.590,277.630 242.440,277.175 239.800 C 275.957 232.735,274.918 231.201,272.507 232.907 C 270.590 234.263,270.656 233.014,270.421 272.483 L 270.200 309.566 268.411 311.389 C 265.796 314.053,266.459 313.996,238.400 313.992 C 210.271 313.987,210.289 313.989,208.319 311.555 C 206.367 309.143,206.400 310.704,206.400 221.958 L 206.400 138.025 207.806 121.363 C 208.579 112.199,209.562 102.968,209.991 100.850 C 210.421 98.733,211.152 93.580,211.616 89.400 C 212.563 80.876,212.521 80.975,216.000 79.176 L 218.200 78.038 240.244 78.019 C 252.368 78.009,263.115 78.113,264.126 78.252 M70.600 83.840 C 67.443 84.414,66.536 84.772,62.600 87.005 C 56.878 90.251,53.115 95.731,51.494 103.175 C 50.511 107.693,49.898 180.747,50.787 187.459 C 52.005 196.654,57.303 202.507,65.910 204.168 C 67.830 204.539,71.020 205.372,73.000 206.019 C 74.980 206.667,78.850 207.630,81.600 208.161 C 84.350 208.691,87.621 209.509,88.868 209.979 C 90.116 210.449,93.716 211.357,96.868 211.996 C 100.021 212.636,103.931 213.616,105.557 214.175 C 107.183 214.734,110.513 215.560,112.957 216.010 C 118.737 217.076,119.202 217.284,121.153 219.683 L 122.800 221.708 122.777 246.354 C 122.750 276.608,123.023 275.438,116.000 275.371 C 108.573 275.301,108.875 276.292,108.813 251.800 C 108.753 227.586,108.896 228.322,103.864 226.463 C 100.291 225.143,59.863 225.117,55.792 226.432 C 50.163 228.251,50.288 227.358,50.492 264.200 L 50.654 293.400 51.690 297.631 C 53.008 303.011,54.749 305.630,59.900 309.984 C 61.762 311.557,62.803 311.966,69.143 313.617 L 73.686 314.800 115.611 314.800 L 157.536 314.800 163.756 313.236 C 174.817 310.455,180.511 304.313,183.252 292.206 C 183.871 289.471,184.223 212.068,183.645 205.744 C 182.721 195.628,177.225 189.802,166.560 187.631 C 164.338 187.179,161.351 186.369,159.923 185.832 C 158.494 185.294,155.276 184.467,152.771 183.994 C 150.266 183.522,146.659 182.618,144.756 181.985 C 142.853 181.353,139.339 180.447,136.948 179.973 C 134.556 179.498,131.160 178.600,129.400 177.978 C 127.640 177.355,124.220 176.464,121.800 175.997 C 115.701 174.820,114.130 174.172,112.749 172.266 L 111.600 170.680 111.600 147.999 L 111.600 125.318 112.515 123.959 L 113.430 122.600 117.862 122.487 L 122.295 122.375 123.547 123.801 L 124.800 125.228 124.817 141.714 C 124.836 160.779,124.904 161.251,127.960 163.399 L 129.668 164.600 153.534 164.713 C 181.712 164.845,181.789 164.833,183.285 159.897 C 184.034 157.430,184.027 107.001,183.278 103.041 C 181.566 93.994,175.351 86.442,167.718 84.133 C 164.463 83.149,75.877 82.881,70.600 83.840 M168.000 84.941 C 169.210 85.345,170.560 85.998,171.000 86.392 C 171.440 86.787,172.520 87.476,173.400 87.923 C 177.463 89.987,181.786 97.741,182.807 104.794 C 183.014 106.227,183.186 118.830,183.188 132.800 L 183.192 158.200 182.225 160.277 C 180.406 164.185,181.802 164.000,154.116 163.999 C 126.538 163.997,128.412 164.259,126.597 160.154 L 125.600 157.900 125.600 141.730 C 125.600 124.019,125.636 124.311,123.184 122.248 C 121.254 120.624,114.656 120.658,112.999 122.300 C 110.770 124.508,110.800 124.153,110.800 148.000 L 110.800 170.027 111.803 172.006 C 113.169 174.701,113.894 175.076,120.266 176.381 C 123.310 177.004,126.755 177.895,127.923 178.360 C 129.091 178.826,132.241 179.647,134.923 180.185 C 137.605 180.722,141.108 181.623,142.707 182.186 C 144.306 182.749,148.197 183.747,151.353 184.404 C 154.509 185.060,157.881 185.945,158.846 186.371 C 159.811 186.797,162.899 187.602,165.709 188.160 C 174.110 189.829,177.938 192.511,181.200 199.013 L 183.000 202.600 183.120 243.800 C 183.197 270.277,183.093 286.358,182.827 288.800 C 182.244 294.156,179.550 301.625,177.263 304.223 C 176.348 305.262,175.600 306.265,175.600 306.451 C 175.600 306.638,174.835 307.264,173.900 307.843 C 172.965 308.423,171.750 309.303,171.200 309.799 C 169.934 310.942,167.480 311.730,161.245 312.995 L 156.290 314.000 115.388 314.000 L 74.486 314.000 69.343 312.830 C 62.842 311.352,62.221 311.106,60.133 309.181 C 59.190 308.311,58.250 307.600,58.046 307.600 C 57.497 307.600,53.379 301.228,52.875 299.600 C 51.759 295.993,51.635 292.439,51.576 262.435 C 51.504 226.529,51.278 228.818,55.031 227.518 C 58.040 226.474,101.016 226.449,104.314 227.488 C 108.004 228.652,107.772 227.135,108.000 251.600 C 108.243 277.656,107.714 275.992,115.754 275.998 C 124.001 276.004,123.400 278.285,123.400 246.955 L 123.400 220.875 122.158 219.337 C 120.370 217.126,119.105 216.528,114.209 215.583 C 111.812 215.121,108.309 214.222,106.425 213.586 C 104.541 212.950,100.930 212.048,98.400 211.582 C 95.870 211.115,92.540 210.288,91.000 209.743 C 89.460 209.198,85.878 208.302,83.040 207.752 C 80.202 207.201,76.962 206.390,75.840 205.949 C 74.718 205.508,71.308 204.629,68.263 203.997 C 63.611 203.030,62.396 202.619,60.660 201.423 C 59.523 200.640,58.378 200.000,58.116 200.000 C 57.853 200.000,56.557 198.714,55.234 197.143 C 51.328 192.503,51.548 195.672,51.701 146.200 C 51.847 98.906,51.737 100.783,54.618 96.600 C 55.378 95.496,56.000 94.382,56.000 94.125 C 56.000 93.276,60.564 88.900,62.400 87.989 C 63.390 87.498,64.696 86.746,65.302 86.319 C 66.587 85.414,68.215 84.870,71.000 84.415 C 75.639 83.658,165.615 84.146,168.000 84.941 " stroke="none" fill="#f29e1a" fill-rule="evenodd"></path></g></svg>